<svg xmlns="http://www.w3.org/2000/svg" xmlns:xlink="http://www.w3.org/1999/xlink" width="128" height="128" version="1.0"><defs><linearGradient id="a"><stop offset="0" stop-color="#d5d3cf"/><stop offset="1" stop-color="#f6f5f4"/></linearGradient><linearGradient id="b"><stop offset="0" stop-color="#d5d3cf"/><stop offset="1" stop-color="#949390"/></linearGradient><linearGradient id="c"><stop offset="0" stop-color="#9a9996"/><stop offset="1" stop-color="#77767b"/></linearGradient><linearGradient id="d"><stop offset="0" stop-color="#f9f06b"/><stop offset="1" stop-color="#f6d32d"/></linearGradient><linearGradient id="e"><stop offset="0" stop-color="#2dc0af"/><stop offset="1" stop-color="#5ed9cb"/></linearGradient><linearGradient id="f"><stop offset="0" stop-color="#fff"/><stop offset="1" stop-color="#fff" stop-opacity="0"/></linearGradient><linearGradient id="g"><stop offset="0" stop-color="#2dc0af"/><stop offset="1" stop-color="#3584e4"/></linearGradient><linearGradient id="h"><stop offset="0" stop-color="#c061cb"/><stop offset="1" stop-color="#8f58c8"/></linearGradient><linearGradient xlink:href="#d" id="m" gradientUnits="userSpaceOnUse" x1="529.288" y1="441.731" x2="543.341" y2="408.599" gradientTransform="translate(-461.557 -35.819)"/><linearGradient xlink:href="#e" id="l" gradientUnits="userSpaceOnUse" x1="529.288" y1="441.731" x2="543.341" y2="408.599" gradientTransform="rotate(-120 320.2 508.254)"/><linearGradient xlink:href="#f" id="k" x1="56" y1="252" x2="0" y2="244" gradientUnits="userSpaceOnUse" gradientTransform="translate(42.443 122.181)"/><linearGradient gradientTransform="translate(42.443 122.181)" xlink:href="#g" id="j" x1="64" y1="260" x2="80" y2="220" gradientUnits="userSpaceOnUse"/><linearGradient gradientTransform="translate(42.443 122.181)" xlink:href="#h" id="i" x1="32" y1="239.25" x2="56" y2="196" gradientUnits="userSpaceOnUse"/></defs><path style="marker:none" overflow="visible" fill="none" d="M0 0h128v128H0z"/><g><g color="#000" font-weight="400" font-family="sans-serif" fill-rule="evenodd"><path d="M36.377 46.955A16.002 16.002 0 0 0 20 62.951v36.95a16.002 16.002 0 0 0 24 13.857L76 95.28a16.002 16.002 0 0 0 0-27.713L44 49.094a16.002 16.002 0 0 0-7.623-2.139z" style="line-height:normal;font-variant-ligatures:normal;font-variant-position:normal;font-variant-caps:normal;font-variant-numeric:normal;font-variant-alternates:normal;font-feature-settings:normal;text-indent:0;text-align:start;text-decoration-line:none;text-decoration-style:solid;text-decoration-color:#000;text-transform:none;text-orientation:mixed;white-space:normal;shape-padding:0;isolation:auto;mix-blend-mode:normal;solid-color:#000;solid-opacity:1" overflow="visible" fill="#2dc0af"/><path d="M78.82 304.187a16.002 16.002 0 0 0-16.377 15.994v73.9h32v-46.187l40 23.094 16-27.713-64-36.95a16.002 16.002 0 0 0-7.623-2.138z" style="line-height:normal;font-variant-ligatures:normal;font-variant-position:normal;font-variant-caps:normal;font-variant-numeric:normal;font-variant-alternates:normal;font-feature-settings:normal;text-indent:0;text-align:start;text-decoration-line:none;text-decoration-style:solid;text-decoration-color:#000;text-transform:none;text-orientation:mixed;white-space:normal;shape-padding:0;isolation:auto;mix-blend-mode:normal;solid-color:#000;solid-opacity:1" overflow="visible" fill="url(#i)" transform="translate(-42.443 -294.181)"/><path d="M110.82 322.662a16.002 16.002 0 0 0-16.377 15.994v36.95a16.002 16.002 0 0 0 24 13.856l32-18.474a16.002 16.002 0 0 0 0-27.713l-32-18.475a16.002 16.002 0 0 0-7.623-2.138z" style="line-height:normal;font-variant-ligatures:normal;font-variant-position:normal;font-variant-caps:normal;font-variant-numeric:normal;font-variant-alternates:normal;font-feature-settings:normal;text-indent:0;text-align:start;text-decoration-line:none;text-decoration-style:solid;text-decoration-color:#000;text-transform:none;text-orientation:mixed;white-space:normal;shape-padding:0;isolation:auto;mix-blend-mode:normal;solid-color:#000;solid-opacity:1" overflow="visible" fill="url(#j)" transform="translate(-42.443 -294.181)"/><path d="M62.46 320.812c-.04 12.106-.005 24.214-.017 36.32v36.95a16.002 16.002 0 0 0 24 13.857l32-18.477a16.002 16.002 0 0 0 0-27.712l-32-18.475a16.002 16.002 0 0 0-1.174-.602c-5.392-3.139-10.852-6.166-16.168-9.43-3.984-2.83-6.487-7.559-6.64-12.431z" style="line-height:normal;font-variant-ligatures:normal;font-variant-position:normal;font-variant-caps:normal;font-variant-numeric:normal;font-variant-alternates:normal;font-feature-settings:normal;text-indent:0;text-align:start;text-decoration-line:none;text-decoration-style:solid;text-decoration-color:#000;text-transform:none;text-orientation:mixed;white-space:normal;shape-padding:0;isolation:auto;mix-blend-mode:normal;solid-color:#000;solid-opacity:1" overflow="visible" opacity=".2" fill="url(#k)" transform="translate(-42.443 -294.181)"/><path style="line-height:normal;font-variant-ligatures:normal;font-variant-position:normal;font-variant-caps:normal;font-variant-numeric:normal;font-variant-alternates:normal;font-feature-settings:normal;text-indent:0;text-align:start;text-decoration-line:none;text-decoration-style:solid;text-decoration-color:#000;text-transform:none;text-orientation:mixed;white-space:normal;shape-padding:0;isolation:auto;mix-blend-mode:normal;solid-color:#000;solid-opacity:1" d="M118.056 389.61c10.815-6.191 21.588-12.456 32.386-18.676 7.049-3.897 10.06-13.432 6.472-20.653-1.64-3.746-4.936-6.356-8.47-8.215-8.542-3.355-19.517 1.811-21.503 11.106-.582 1.252-.51 2.562-.498 3.96-.047 6.672.097 13.35-.082 20.018-.49 5.194-3.7 10.008-8.305 12.46z" overflow="visible" fill="url(#l)" transform="translate(-42.443 -294.181)"/><path d="M62.462 356.697c-.045 12.46-.007 24.923-.02 37.385-.148 8.052 6.604 15.427 14.651 15.931 4.064.453 7.972-1.097 11.35-3.228 7.176-5.72 8.19-17.808 1.133-24.175-.794-1.13-1.964-1.723-3.18-2.411-5.755-3.377-11.61-6.59-17.296-10.08-4.253-3.022-6.817-8.209-6.638-13.422z" style="line-height:normal;font-variant-ligatures:normal;font-variant-position:normal;font-variant-caps:normal;font-variant-numeric:normal;font-variant-alternates:normal;font-feature-settings:normal;text-indent:0;text-align:start;text-decoration-line:none;text-decoration-style:solid;text-decoration-color:#000;text-transform:none;text-orientation:mixed;white-space:normal;shape-padding:0;isolation:auto;mix-blend-mode:normal;solid-color:#000;solid-opacity:1" overflow="visible" fill="url(#m)" transform="translate(-42.443 -294.181)"/><path d="M115.86 60.959A16.002 16.002 0 0 1 108 72.807l-64 36.95c-10.667 6.157-23.999-1.54-24-13.857v4c.001 12.316 13.333 20.014 24 13.858l64-36.951a16.002 16.002 0 0 0 7.86-15.848z" style="line-height:normal;font-variant-ligatures:normal;font-variant-position:normal;font-variant-caps:normal;font-variant-numeric:normal;font-variant-alternates:normal;font-feature-settings:normal;text-indent:0;text-align:start;text-decoration-line:none;text-decoration-style:solid;text-decoration-color:#000;text-transform:none;text-orientation:mixed;white-space:normal;shape-padding:0;isolation:auto;mix-blend-mode:normal;solid-color:#000;solid-opacity:1" overflow="visible" opacity=".2"/></g></g></svg>